# MagicaVoxel @ Ephtracy

# group
g level1

# material
mtllib level1.mtl
usemtl palette

# normals
vn -1 0 0
vn 1 0 0
vn 0 0 1
vn 0 0 -1
vn 0 -1 0
vn 0 1 0

# texcoords
vt 0.974609 0.5
vt 0.978516 0.5
vt 0.990234 0.5
vt 0.994141 0.5

# verts
v -40 0 40
v -40 0 -40
v -40 1 40
v -40 1 -40
v -33 1 34
v -33 1 -34
v -33 2 34
v -33 2 -34
v -33 4 34
v -33 4 -34
v -25 2 14
v -25 2 8
v -25 2 -8
v -25 2 -14
v -25 3 14
v -25 3 8
v -25 3 -8
v -25 3 -14
v -18 2 33
v -18 2 21
v -18 2 -21
v -18 2 -33
v -18 3 33
v -18 3 21
v -18 3 -21
v -18 3 -33
v -17 2 16
v -17 2 9
v -17 2 8
v -17 2 5
v -17 2 -5
v -17 2 -8
v -17 2 -9
v -17 2 -16
v -17 3 16
v -17 3 9
v -17 3 8
v -17 3 5
v -17 3 -5
v -17 3 -8
v -17 3 -9
v -17 3 -16
v -10 2 24
v -10 2 16
v -10 2 -16
v -10 2 -24
v -10 3 24
v -10 3 16
v -10 3 -16
v -10 3 -24
v -7 2 2
v -7 2 -2
v -7 3 2
v -7 3 -2
v -2 2 33
v -2 2 25
v -2 2 8
v -2 2 2
v -2 2 -2
v -2 2 -8
v -2 2 -25
v -2 2 -33
v -2 3 33
v -2 3 25
v -2 3 2
v -2 3 -2
v -2 3 -25
v -2 3 -33
v -2 4 8
v -2 4 -8
v 5 2 16
v 5 2 15
v 5 2 -15
v 5 2 -16
v 5 3 16
v 5 3 15
v 5 3 -15
v 5 3 -16
v 9 2 24
v 9 2 16
v 9 2 -16
v 9 2 -24
v 9 3 24
v 9 3 16
v 9 3 -16
v 9 3 -24
v 16 2 15
v 16 2 5
v 16 2 -5
v 16 2 -15
v 16 3 15
v 16 3 5
v 16 3 -5
v 16 3 -15
v 17 2 33
v 17 2 21
v 17 2 -21
v 17 2 -33
v 17 3 33
v 17 3 21
v 17 3 -21
v 17 3 -33
v 24 2 14
v 24 2 9
v 24 2 2
v 24 2 -2
v 24 2 -9
v 24 2 -14
v 24 3 14
v 24 3 9
v 24 3 2
v 24 3 -2
v 24 3 -9
v 24 3 -14
v 32 2 33
v 32 2 2
v 32 2 -2
v 32 2 -33
v 32 3 2
v 32 3 -2
v 32 4 33
v 32 4 -33
v -32 2 33
v -32 2 2
v -32 2 -2
v -32 2 -33
v -32 3 2
v -32 3 -2
v -32 4 33
v -32 4 -33
v -24 2 14
v -24 2 9
v -24 2 2
v -24 2 -2
v -24 2 -9
v -24 2 -14
v -24 3 14
v -24 3 9
v -24 3 2
v -24 3 -2
v -24 3 -9
v -24 3 -14
v -17 2 33
v -17 2 21
v -17 2 -21
v -17 2 -33
v -17 3 33
v -17 3 21
v -17 3 -21
v -17 3 -33
v -16 2 15
v -16 2 5
v -16 2 -5
v -16 2 -15
v -16 3 15
v -16 3 5
v -16 3 -5
v -16 3 -15
v -9 2 24
v -9 2 16
v -9 2 -16
v -9 2 -24
v -9 3 24
v -9 3 16
v -9 3 -16
v -9 3 -24
v -5 2 16
v -5 2 15
v -5 2 -15
v -5 2 -16
v -5 3 16
v -5 3 15
v -5 3 -15
v -5 3 -16
v 2 2 33
v 2 2 25
v 2 2 8
v 2 2 2
v 2 2 -2
v 2 2 -8
v 2 2 -25
v 2 2 -33
v 2 3 33
v 2 3 25
v 2 3 2
v 2 3 -2
v 2 3 -25
v 2 3 -33
v 2 4 8
v 2 4 -8
v 7 2 2
v 7 2 -2
v 7 3 2
v 7 3 -2
v 10 2 24
v 10 2 16
v 10 2 -16
v 10 2 -24
v 10 3 24
v 10 3 16
v 10 3 -16
v 10 3 -24
v 17 2 16
v 17 2 9
v 17 2 8
v 17 2 5
v 17 2 -5
v 17 2 -8
v 17 2 -9
v 17 2 -16
v 17 3 16
v 17 3 9
v 17 3 8
v 17 3 5
v 17 3 -5
v 17 3 -8
v 17 3 -9
v 17 3 -16
v 18 2 33
v 18 2 21
v 18 2 -21
v 18 2 -33
v 18 3 33
v 18 3 21
v 18 3 -21
v 18 3 -33
v 25 2 14
v 25 2 8
v 25 2 -8
v 25 2 -14
v 25 3 14
v 25 3 8
v 25 3 -8
v 25 3 -14
v 33 1 34
v 33 1 -34
v 33 2 34
v 33 2 -34
v 33 4 34
v 33 4 -34
v 40 0 40
v 40 0 -40
v 40 1 40
v 40 1 -40
v -40 0 40
v -40 1 40
v 40 0 40
v 40 1 40
v -33 1 34
v -33 2 34
v -33 4 34
v 33 1 34
v 33 2 34
v 33 4 34
v -10 2 24
v -10 3 24
v -9 2 24
v -9 3 24
v 9 2 24
v 9 3 24
v 10 2 24
v 10 3 24
v -17 2 16
v -17 3 16
v -10 2 16
v -10 3 16
v -9 2 16
v -9 3 16
v -5 2 16
v -5 3 16
v 5 2 16
v 5 3 16
v 9 2 16
v 9 3 16
v 10 2 16
v 10 3 16
v 17 2 16
v 17 3 16
v -25 2 14
v -25 3 14
v -24 2 14
v -24 3 14
v 24 2 14
v 24 3 14
v 25 2 14
v 25 3 14
v -24 2 9
v -24 3 9
v -17 2 9
v -17 3 9
v 17 2 9
v 17 3 9
v 24 2 9
v 24 3 9
v -2 2 8
v -2 4 8
v 2 2 8
v 2 4 8
v -32 2 2
v -32 3 2
v -24 2 2
v -24 3 2
v -7 2 2
v -7 3 2
v -2 2 2
v -2 3 2
v 2 2 2
v 2 3 2
v 7 2 2
v 7 3 2
v 24 2 2
v 24 3 2
v 32 2 2
v 32 3 2
v -17 2 -5
v -17 3 -5
v -16 2 -5
v -16 3 -5
v 16 2 -5
v 16 3 -5
v 17 2 -5
v 17 3 -5
v -25 2 -8
v -25 3 -8
v -17 2 -8
v -17 3 -8
v 17 2 -8
v 17 3 -8
v 25 2 -8
v 25 3 -8
v -16 2 -15
v -16 3 -15
v -5 2 -15
v -5 3 -15
v 5 2 -15
v 5 3 -15
v 16 2 -15
v 16 3 -15
v -18 2 -21
v -18 3 -21
v -17 2 -21
v -17 3 -21
v 17 2 -21
v 17 3 -21
v 18 2 -21
v 18 3 -21
v -2 2 -25
v -2 3 -25
v 2 2 -25
v 2 3 -25
v -32 2 -33
v -32 4 -33
v -18 2 -33
v -18 3 -33
v -17 2 -33
v -17 3 -33
v -2 2 -33
v -2 3 -33
v 2 2 -33
v 2 3 -33
v 17 2 -33
v 17 3 -33
v 18 2 -33
v 18 3 -33
v 32 2 -33
v 32 4 -33
v -32 2 33
v -32 4 33
v -18 2 33
v -18 3 33
v -17 2 33
v -17 3 33
v -2 2 33
v -2 3 33
v 2 2 33
v 2 3 33
v 17 2 33
v 17 3 33
v 18 2 33
v 18 3 33
v 32 2 33
v 32 4 33
v -2 2 25
v -2 3 25
v 2 2 25
v 2 3 25
v -18 2 21
v -18 3 21
v -17 2 21
v -17 3 21
v 17 2 21
v 17 3 21
v 18 2 21
v 18 3 21
v -16 2 15
v -16 3 15
v -5 2 15
v -5 3 15
v 5 2 15
v 5 3 15
v 16 2 15
v 16 3 15
v -25 2 8
v -25 3 8
v -17 2 8
v -17 3 8
v 17 2 8
v 17 3 8
v 25 2 8
v 25 3 8
v -17 2 5
v -17 3 5
v -16 2 5
v -16 3 5
v 16 2 5
v 16 3 5
v 17 2 5
v 17 3 5
v -32 2 -2
v -32 3 -2
v -24 2 -2
v -24 3 -2
v -7 2 -2
v -7 3 -2
v -2 2 -2
v -2 3 -2
v 2 2 -2
v 2 3 -2
v 7 2 -2
v 7 3 -2
v 24 2 -2
v 24 3 -2
v 32 2 -2
v 32 3 -2
v -2 2 -8
v -2 4 -8
v 2 2 -8
v 2 4 -8
v -24 2 -9
v -24 3 -9
v -17 2 -9
v -17 3 -9
v 17 2 -9
v 17 3 -9
v 24 2 -9
v 24 3 -9
v -25 2 -14
v -25 3 -14
v -24 2 -14
v -24 3 -14
v 24 2 -14
v 24 3 -14
v 25 2 -14
v 25 3 -14
v -17 2 -16
v -17 3 -16
v -10 2 -16
v -10 3 -16
v -9 2 -16
v -9 3 -16
v -5 2 -16
v -5 3 -16
v 5 2 -16
v 5 3 -16
v 9 2 -16
v 9 3 -16
v 10 2 -16
v 10 3 -16
v 17 2 -16
v 17 3 -16
v -10 2 -24
v -10 3 -24
v -9 2 -24
v -9 3 -24
v 9 2 -24
v 9 3 -24
v 10 2 -24
v 10 3 -24
v -33 1 -34
v -33 2 -34
v -33 4 -34
v 33 1 -34
v 33 2 -34
v 33 4 -34
v -40 0 -40
v -40 1 -40
v 40 0 -40
v 40 1 -40
v -40 0 40
v 40 0 40
v -40 0 -40
v 40 0 -40
v -40 1 40
v 40 1 40
v -33 1 34
v 33 1 34
v -33 1 -34
v 33 1 -34
v -40 1 -40
v 40 1 -40
v -32 2 33
v -18 2 33
v -17 2 33
v -2 2 33
v 2 2 33
v 17 2 33
v 18 2 33
v 32 2 33
v -2 2 25
v 2 2 25
v -10 2 24
v -9 2 24
v 9 2 24
v 10 2 24
v -18 2 21
v -17 2 21
v 17 2 21
v 18 2 21
v -17 2 16
v -10 2 16
v -9 2 16
v -5 2 16
v 5 2 16
v 9 2 16
v 10 2 16
v 17 2 16
v -16 2 15
v -5 2 15
v 5 2 15
v 16 2 15
v -25 2 14
v -24 2 14
v 24 2 14
v 25 2 14
v -24 2 9
v -17 2 9
v 17 2 9
v 24 2 9
v -25 2 8
v -17 2 8
v -2 2 8
v 2 2 8
v 17 2 8
v 25 2 8
v -17 2 5
v -16 2 5
v 16 2 5
v 17 2 5
v -32 2 2
v -24 2 2
v -7 2 2
v -2 2 2
v 2 2 2
v 7 2 2
v 24 2 2
v 32 2 2
v -32 2 -2
v -24 2 -2
v -7 2 -2
v -2 2 -2
v 2 2 -2
v 7 2 -2
v 24 2 -2
v 32 2 -2
v -17 2 -5
v -16 2 -5
v 16 2 -5
v 17 2 -5
v -25 2 -8
v -17 2 -8
v -2 2 -8
v 2 2 -8
v 17 2 -8
v 25 2 -8
v -24 2 -9
v -17 2 -9
v 17 2 -9
v 24 2 -9
v -25 2 -14
v -24 2 -14
v 24 2 -14
v 25 2 -14
v -16 2 -15
v -5 2 -15
v 5 2 -15
v 16 2 -15
v -17 2 -16
v -10 2 -16
v -9 2 -16
v -5 2 -16
v 5 2 -16
v 9 2 -16
v 10 2 -16
v 17 2 -16
v -18 2 -21
v -17 2 -21
v 17 2 -21
v 18 2 -21
v -10 2 -24
v -9 2 -24
v 9 2 -24
v 10 2 -24
v -2 2 -25
v 2 2 -25
v -32 2 -33
v -18 2 -33
v -17 2 -33
v -2 2 -33
v 2 2 -33
v 17 2 -33
v 18 2 -33
v 32 2 -33
v -18 3 33
v -17 3 33
v -2 3 33
v 2 3 33
v 17 3 33
v 18 3 33
v -2 3 25
v 2 3 25
v -10 3 24
v -9 3 24
v 9 3 24
v 10 3 24
v -18 3 21
v -17 3 21
v 17 3 21
v 18 3 21
v -17 3 16
v -10 3 16
v -9 3 16
v -5 3 16
v 5 3 16
v 9 3 16
v 10 3 16
v 17 3 16
v -16 3 15
v -5 3 15
v 5 3 15
v 16 3 15
v -25 3 14
v -24 3 14
v 24 3 14
v 25 3 14
v -24 3 9
v -17 3 9
v 17 3 9
v 24 3 9
v -25 3 8
v -17 3 8
v 17 3 8
v 25 3 8
v -17 3 5
v -16 3 5
v 16 3 5
v 17 3 5
v -32 3 2
v -24 3 2
v -7 3 2
v -2 3 2
v 2 3 2
v 7 3 2
v 24 3 2
v 32 3 2
v -32 3 -2
v -24 3 -2
v -7 3 -2
v -2 3 -2
v 2 3 -2
v 7 3 -2
v 24 3 -2
v 32 3 -2
v -17 3 -5
v -16 3 -5
v 16 3 -5
v 17 3 -5
v -25 3 -8
v -17 3 -8
v 17 3 -8
v 25 3 -8
v -24 3 -9
v -17 3 -9
v 17 3 -9
v 24 3 -9
v -25 3 -14
v -24 3 -14
v 24 3 -14
v 25 3 -14
v -16 3 -15
v -5 3 -15
v 5 3 -15
v 16 3 -15
v -17 3 -16
v -10 3 -16
v -9 3 -16
v -5 3 -16
v 5 3 -16
v 9 3 -16
v 10 3 -16
v 17 3 -16
v -18 3 -21
v -17 3 -21
v 17 3 -21
v 18 3 -21
v -10 3 -24
v -9 3 -24
v 9 3 -24
v 10 3 -24
v -2 3 -25
v 2 3 -25
v -18 3 -33
v -17 3 -33
v -2 3 -33
v 2 3 -33
v 17 3 -33
v 18 3 -33
v -33 4 34
v 33 4 34
v -32 4 33
v 32 4 33
v -2 4 8
v 2 4 8
v -2 4 -8
v 2 4 -8
v -32 4 -33
v 32 4 -33
v -33 4 -34
v 33 4 -34

# faces
f 3/4/1 2/4/1 1/4/1
f 4/4/1 2/4/1 3/4/1
f 7/3/1 6/3/1 5/3/1
f 8/3/1 6/3/1 7/3/1
f 9/2/1 8/2/1 7/2/1
f 10/2/1 8/2/1 9/2/1
f 15/1/1 12/1/1 11/1/1
f 16/1/1 12/1/1 15/1/1
f 17/1/1 14/1/1 13/1/1
f 18/1/1 14/1/1 17/1/1
f 23/1/1 20/1/1 19/1/1
f 24/1/1 20/1/1 23/1/1
f 25/1/1 22/1/1 21/1/1
f 26/1/1 22/1/1 25/1/1
f 35/1/1 28/1/1 27/1/1
f 36/1/1 28/1/1 35/1/1
f 37/1/1 30/1/1 29/1/1
f 38/1/1 30/1/1 37/1/1
f 39/1/1 32/1/1 31/1/1
f 40/1/1 32/1/1 39/1/1
f 41/1/1 34/1/1 33/1/1
f 42/1/1 34/1/1 41/1/1
f 47/1/1 44/1/1 43/1/1
f 48/1/1 44/1/1 47/1/1
f 49/1/1 46/1/1 45/1/1
f 50/1/1 46/1/1 49/1/1
f 53/1/1 52/1/1 51/1/1
f 54/1/1 52/1/1 53/1/1
f 63/1/1 56/1/1 55/1/1
f 64/1/1 56/1/1 63/1/1
f 65/1/1 58/1/1 57/1/1
f 66/1/1 60/1/1 59/1/1
f 67/1/1 62/1/1 61/1/1
f 68/1/1 62/1/1 67/1/1
f 69/1/1 66/1/1 65/1/1
f 69/1/1 65/1/1 57/1/1
f 70/1/1 60/1/1 66/1/1
f 70/1/1 66/1/1 69/1/1
f 75/1/1 72/1/1 71/1/1
f 76/1/1 72/1/1 75/1/1
f 77/1/1 74/1/1 73/1/1
f 78/1/1 74/1/1 77/1/1
f 83/1/1 80/1/1 79/1/1
f 84/1/1 80/1/1 83/1/1
f 85/1/1 82/1/1 81/1/1
f 86/1/1 82/1/1 85/1/1
f 91/1/1 88/1/1 87/1/1
f 92/1/1 88/1/1 91/1/1
f 93/1/1 90/1/1 89/1/1
f 94/1/1 90/1/1 93/1/1
f 99/1/1 96/1/1 95/1/1
f 100/1/1 96/1/1 99/1/1
f 101/1/1 98/1/1 97/1/1
f 102/1/1 98/1/1 101/1/1
f 109/1/1 104/1/1 103/1/1
f 110/1/1 104/1/1 109/1/1
f 111/1/1 106/1/1 105/1/1
f 112/1/1 106/1/1 111/1/1
f 113/1/1 108/1/1 107/1/1
f 114/1/1 108/1/1 113/1/1
f 119/2/1 116/2/1 115/2/1
f 120/2/1 118/2/1 117/2/1
f 121/2/1 119/2/1 115/2/1
f 121/2/1 120/2/1 119/2/1
f 122/2/1 118/2/1 120/2/1
f 122/2/1 120/2/1 121/2/1
f 123/2/2 124/2/2 127/2/2
f 125/2/2 126/2/2 128/2/2
f 123/2/2 127/2/2 129/2/2
f 127/2/2 128/2/2 129/2/2
f 128/2/2 126/2/2 130/2/2
f 129/2/2 128/2/2 130/2/2
f 131/1/2 132/1/2 137/1/2
f 137/1/2 132/1/2 138/1/2
f 133/1/2 134/1/2 139/1/2
f 139/1/2 134/1/2 140/1/2
f 135/1/2 136/1/2 141/1/2
f 141/1/2 136/1/2 142/1/2
f 143/1/2 144/1/2 147/1/2
f 147/1/2 144/1/2 148/1/2
f 145/1/2 146/1/2 149/1/2
f 149/1/2 146/1/2 150/1/2
f 151/1/2 152/1/2 155/1/2
f 155/1/2 152/1/2 156/1/2
f 153/1/2 154/1/2 157/1/2
f 157/1/2 154/1/2 158/1/2
f 159/1/2 160/1/2 163/1/2
f 163/1/2 160/1/2 164/1/2
f 161/1/2 162/1/2 165/1/2
f 165/1/2 162/1/2 166/1/2
f 167/1/2 168/1/2 171/1/2
f 171/1/2 168/1/2 172/1/2
f 169/1/2 170/1/2 173/1/2
f 173/1/2 170/1/2 174/1/2
f 175/1/2 176/1/2 183/1/2
f 183/1/2 176/1/2 184/1/2
f 177/1/2 178/1/2 185/1/2
f 179/1/2 180/1/2 186/1/2
f 181/1/2 182/1/2 187/1/2
f 187/1/2 182/1/2 188/1/2
f 185/1/2 186/1/2 189/1/2
f 177/1/2 185/1/2 189/1/2
f 186/1/2 180/1/2 190/1/2
f 189/1/2 186/1/2 190/1/2
f 191/1/2 192/1/2 193/1/2
f 193/1/2 192/1/2 194/1/2
f 195/1/2 196/1/2 199/1/2
f 199/1/2 196/1/2 200/1/2
f 197/1/2 198/1/2 201/1/2
f 201/1/2 198/1/2 202/1/2
f 203/1/2 204/1/2 211/1/2
f 211/1/2 204/1/2 212/1/2
f 205/1/2 206/1/2 213/1/2
f 213/1/2 206/1/2 214/1/2
f 207/1/2 208/1/2 215/1/2
f 215/1/2 208/1/2 216/1/2
f 209/1/2 210/1/2 217/1/2
f 217/1/2 210/1/2 218/1/2
f 219/1/2 220/1/2 223/1/2
f 223/1/2 220/1/2 224/1/2
f 221/1/2 222/1/2 225/1/2
f 225/1/2 222/1/2 226/1/2
f 227/1/2 228/1/2 231/1/2
f 231/1/2 228/1/2 232/1/2
f 229/1/2 230/1/2 233/1/2
f 233/1/2 230/1/2 234/1/2
f 235/3/2 236/3/2 237/3/2
f 237/3/2 236/3/2 238/3/2
f 237/2/2 238/2/2 239/2/2
f 239/2/2 238/2/2 240/2/2
f 241/4/2 242/4/2 243/4/2
f 243/4/2 242/4/2 244/4/2
f 247/4/3 246/4/3 245/4/3
f 248/4/3 246/4/3 247/4/3
f 252/3/3 250/3/3 249/3/3
f 253/2/3 251/2/3 250/2/3
f 253/3/3 250/3/3 252/3/3
f 254/2/3 251/2/3 253/2/3
f 257/1/3 256/1/3 255/1/3
f 258/1/3 256/1/3 257/1/3
f 261/1/3 260/1/3 259/1/3
f 262/1/3 260/1/3 261/1/3
f 265/1/3 264/1/3 263/1/3
f 266/1/3 264/1/3 265/1/3
f 269/1/3 268/1/3 267/1/3
f 270/1/3 268/1/3 269/1/3
f 273/1/3 272/1/3 271/1/3
f 274/1/3 272/1/3 273/1/3
f 277/1/3 276/1/3 275/1/3
f 278/1/3 276/1/3 277/1/3
f 281/1/3 280/1/3 279/1/3
f 282/1/3 280/1/3 281/1/3
f 285/1/3 284/1/3 283/1/3
f 286/1/3 284/1/3 285/1/3
f 289/1/3 288/1/3 287/1/3
f 290/1/3 288/1/3 289/1/3
f 293/1/3 292/1/3 291/1/3
f 294/1/3 292/1/3 293/1/3
f 297/1/3 296/1/3 295/1/3
f 298/1/3 296/1/3 297/1/3
f 301/1/3 300/1/3 299/1/3
f 302/1/3 300/1/3 301/1/3
f 305/1/3 304/1/3 303/1/3
f 306/1/3 304/1/3 305/1/3
f 309/1/3 308/1/3 307/1/3
f 310/1/3 308/1/3 309/1/3
f 313/1/3 312/1/3 311/1/3
f 314/1/3 312/1/3 313/1/3
f 317/1/3 316/1/3 315/1/3
f 318/1/3 316/1/3 317/1/3
f 321/1/3 320/1/3 319/1/3
f 322/1/3 320/1/3 321/1/3
f 325/1/3 324/1/3 323/1/3
f 326/1/3 324/1/3 325/1/3
f 329/1/3 328/1/3 327/1/3
f 330/1/3 328/1/3 329/1/3
f 333/1/3 332/1/3 331/1/3
f 334/1/3 332/1/3 333/1/3
f 337/1/3 336/1/3 335/1/3
f 338/1/3 336/1/3 337/1/3
f 341/1/3 340/1/3 339/1/3
f 342/1/3 340/1/3 341/1/3
f 345/1/3 344/1/3 343/1/3
f 346/1/3 344/1/3 345/1/3
f 349/1/3 348/1/3 347/1/3
f 350/1/3 348/1/3 349/1/3
f 353/2/3 352/2/3 351/2/3
f 354/2/3 352/2/3 353/2/3
f 356/2/3 352/2/3 354/2/3
f 357/2/3 356/2/3 355/2/3
f 358/2/3 352/2/3 356/2/3
f 358/2/3 356/2/3 357/2/3
f 360/2/3 352/2/3 358/2/3
f 361/2/3 360/2/3 359/2/3
f 362/2/3 352/2/3 360/2/3
f 362/2/3 360/2/3 361/2/3
f 364/2/3 352/2/3 362/2/3
f 365/2/3 364/2/3 363/2/3
f 366/2/3 352/2/3 364/2/3
f 366/2/3 364/2/3 365/2/3
f 367/2/4 368/2/4 369/2/4
f 369/2/4 368/2/4 370/2/4
f 370/2/4 368/2/4 372/2/4
f 371/2/4 372/2/4 373/2/4
f 372/2/4 368/2/4 374/2/4
f 373/2/4 372/2/4 374/2/4
f 374/2/4 368/2/4 376/2/4
f 375/2/4 376/2/4 377/2/4
f 376/2/4 368/2/4 378/2/4
f 377/2/4 376/2/4 378/2/4
f 378/2/4 368/2/4 380/2/4
f 379/2/4 380/2/4 381/2/4
f 380/2/4 368/2/4 382/2/4
f 381/2/4 380/2/4 382/2/4
f 383/1/4 384/1/4 385/1/4
f 385/1/4 384/1/4 386/1/4
f 387/1/4 388/1/4 389/1/4
f 389/1/4 388/1/4 390/1/4
f 391/1/4 392/1/4 393/1/4
f 393/1/4 392/1/4 394/1/4
f 395/1/4 396/1/4 397/1/4
f 397/1/4 396/1/4 398/1/4
f 399/1/4 400/1/4 401/1/4
f 401/1/4 400/1/4 402/1/4
f 403/1/4 404/1/4 405/1/4
f 405/1/4 404/1/4 406/1/4
f 407/1/4 408/1/4 409/1/4
f 409/1/4 408/1/4 410/1/4
f 411/1/4 412/1/4 413/1/4
f 413/1/4 412/1/4 414/1/4
f 415/1/4 416/1/4 417/1/4
f 417/1/4 416/1/4 418/1/4
f 419/1/4 420/1/4 421/1/4
f 421/1/4 420/1/4 422/1/4
f 423/1/4 424/1/4 425/1/4
f 425/1/4 424/1/4 426/1/4
f 427/1/4 428/1/4 429/1/4
f 429/1/4 428/1/4 430/1/4
f 431/1/4 432/1/4 433/1/4
f 433/1/4 432/1/4 434/1/4
f 435/1/4 436/1/4 437/1/4
f 437/1/4 436/1/4 438/1/4
f 439/1/4 440/1/4 441/1/4
f 441/1/4 440/1/4 442/1/4
f 443/1/4 444/1/4 445/1/4
f 445/1/4 444/1/4 446/1/4
f 447/1/4 448/1/4 449/1/4
f 449/1/4 448/1/4 450/1/4
f 451/1/4 452/1/4 453/1/4
f 453/1/4 452/1/4 454/1/4
f 455/1/4 456/1/4 457/1/4
f 457/1/4 456/1/4 458/1/4
f 459/1/4 460/1/4 461/1/4
f 461/1/4 460/1/4 462/1/4
f 463/1/4 464/1/4 465/1/4
f 465/1/4 464/1/4 466/1/4
f 467/1/4 468/1/4 469/1/4
f 469/1/4 468/1/4 470/1/4
f 471/1/4 472/1/4 473/1/4
f 473/1/4 472/1/4 474/1/4
f 475/1/4 476/1/4 477/1/4
f 477/1/4 476/1/4 478/1/4
f 479/3/4 480/3/4 482/3/4
f 480/2/4 481/2/4 483/2/4
f 482/3/4 480/3/4 483/3/4
f 483/2/4 481/2/4 484/2/4
f 485/4/4 486/4/4 487/4/4
f 487/4/4 486/4/4 488/4/4
f 491/4/5 490/4/5 489/4/5
f 492/4/5 490/4/5 491/4/5
f 493/4/6 494/4/6 495/4/6
f 495/4/6 494/4/6 496/4/6
f 493/4/6 495/4/6 497/4/6
f 496/4/6 494/4/6 498/4/6
f 493/4/6 497/4/6 499/4/6
f 497/4/6 498/4/6 499/4/6
f 498/4/6 494/4/6 500/4/6
f 499/4/6 498/4/6 500/4/6
f 503/3/6 504/3/6 509/3/6
f 505/3/6 506/3/6 510/3/6
f 503/3/6 509/3/6 511/3/6
f 509/3/6 510/3/6 511/3/6
f 511/3/6 510/3/6 512/3/6
f 510/3/6 506/3/6 513/3/6
f 512/3/6 510/3/6 513/3/6
f 513/3/6 506/3/6 514/3/6
f 501/3/6 502/3/6 515/3/6
f 503/3/6 511/3/6 516/3/6
f 514/3/6 506/3/6 517/3/6
f 507/3/6 508/3/6 518/3/6
f 515/3/6 516/3/6 519/3/6
f 516/3/6 511/3/6 519/3/6
f 519/3/6 511/3/6 520/3/6
f 512/3/6 513/3/6 521/3/6
f 521/3/6 513/3/6 522/3/6
f 522/3/6 513/3/6 523/3/6
f 523/3/6 513/3/6 524/3/6
f 517/3/6 518/3/6 525/3/6
f 514/3/6 517/3/6 525/3/6
f 525/3/6 518/3/6 526/3/6
f 522/3/6 523/3/6 528/3/6
f 528/3/6 523/3/6 529/3/6
f 501/3/6 515/3/6 531/3/6
f 515/3/6 519/3/6 531/3/6
f 531/3/6 519/3/6 532/3/6
f 526/3/6 518/3/6 533/3/6
f 518/3/6 508/3/6 533/3/6
f 533/3/6 508/3/6 534/3/6
f 532/3/6 519/3/6 535/3/6
f 535/3/6 519/3/6 536/3/6
f 526/3/6 533/3/6 537/3/6
f 537/3/6 533/3/6 538/3/6
f 501/3/6 531/3/6 539/3/6
f 529/3/6 530/3/6 541/3/6
f 528/3/6 529/3/6 541/3/6
f 527/3/6 528/3/6 541/3/6
f 541/3/6 530/3/6 542/3/6
f 534/3/6 508/3/6 544/3/6
f 539/3/6 540/3/6 545/3/6
f 527/3/6 541/3/6 546/3/6
f 542/3/6 530/3/6 547/3/6
f 543/3/6 544/3/6 548/3/6
f 545/3/6 546/3/6 549/3/6
f 501/3/6 539/3/6 549/3/6
f 539/3/6 545/3/6 549/3/6
f 549/3/6 546/3/6 550/3/6
f 546/3/6 541/3/6 551/3/6
f 550/3/6 546/3/6 551/3/6
f 551/3/6 541/3/6 552/3/6
f 547/3/6 548/3/6 553/3/6
f 542/3/6 547/3/6 553/3/6
f 553/3/6 548/3/6 554/3/6
f 548/3/6 544/3/6 555/3/6
f 554/3/6 548/3/6 555/3/6
f 544/3/6 508/3/6 556/3/6
f 555/3/6 544/3/6 556/3/6
f 550/3/6 551/3/6 558/3/6
f 558/3/6 551/3/6 559/3/6
f 554/3/6 555/3/6 562/3/6
f 562/3/6 555/3/6 563/3/6
f 559/3/6 560/3/6 565/3/6
f 557/3/6 558/3/6 565/3/6
f 558/3/6 559/3/6 565/3/6
f 565/3/6 560/3/6 566/3/6
f 563/3/6 564/3/6 567/3/6
f 562/3/6 563/3/6 567/3/6
f 561/3/6 562/3/6 567/3/6
f 567/3/6 564/3/6 568/3/6
f 557/3/6 565/3/6 569/3/6
f 569/3/6 565/3/6 570/3/6
f 566/3/6 560/3/6 571/3/6
f 561/3/6 567/3/6 572/3/6
f 568/3/6 564/3/6 573/3/6
f 573/3/6 564/3/6 574/3/6
f 557/3/6 569/3/6 579/3/6
f 575/3/6 576/3/6 580/3/6
f 577/3/6 578/3/6 581/3/6
f 574/3/6 564/3/6 582/3/6
f 571/3/6 572/3/6 583/3/6
f 566/3/6 571/3/6 583/3/6
f 583/3/6 572/3/6 584/3/6
f 572/3/6 567/3/6 585/3/6
f 584/3/6 572/3/6 585/3/6
f 585/3/6 567/3/6 586/3/6
f 579/3/6 580/3/6 587/3/6
f 580/3/6 576/3/6 587/3/6
f 584/3/6 585/3/6 590/3/6
f 590/3/6 585/3/6 591/3/6
f 577/3/6 581/3/6 594/3/6
f 581/3/6 582/3/6 594/3/6
f 587/3/6 588/3/6 595/3/6
f 579/3/6 587/3/6 595/3/6
f 595/3/6 588/3/6 596/3/6
f 593/3/6 594/3/6 597/3/6
f 594/3/6 582/3/6 597/3/6
f 597/3/6 582/3/6 598/3/6
f 596/3/6 588/3/6 599/3/6
f 591/3/6 592/3/6 600/3/6
f 590/3/6 591/3/6 600/3/6
f 589/3/6 590/3/6 600/3/6
f 600/3/6 592/3/6 601/3/6
f 593/3/6 597/3/6 602/3/6
f 600/3/6 601/3/6 603/3/6
f 601/3/6 602/3/6 603/3/6
f 599/3/6 600/3/6 603/3/6
f 603/3/6 602/3/6 604/3/6
f 579/3/6 595/3/6 605/3/6
f 557/3/6 579/3/6 605/3/6
f 605/3/6 595/3/6 606/3/6
f 596/3/6 599/3/6 607/3/6
f 599/3/6 603/3/6 607/3/6
f 607/3/6 603/3/6 608/3/6
f 604/3/6 602/3/6 609/3/6
f 602/3/6 597/3/6 610/3/6
f 609/3/6 602/3/6 610/3/6
f 598/3/6 582/3/6 611/3/6
f 582/3/6 564/3/6 612/3/6
f 611/3/6 582/3/6 612/3/6
f 615/1/6 616/1/6 619/1/6
f 619/1/6 616/1/6 620/1/6
f 613/1/6 614/1/6 625/1/6
f 625/1/6 614/1/6 626/1/6
f 617/1/6 618/1/6 627/1/6
f 627/1/6 618/1/6 628/1/6
f 621/1/6 622/1/6 630/1/6
f 630/1/6 622/1/6 631/1/6
f 623/1/6 624/1/6 634/1/6
f 634/1/6 624/1/6 635/1/6
f 631/1/6 632/1/6 637/1/6
f 629/1/6 630/1/6 637/1/6
f 630/1/6 631/1/6 637/1/6
f 637/1/6 632/1/6 638/1/6
f 635/1/6 636/1/6 639/1/6
f 634/1/6 635/1/6 639/1/6
f 633/1/6 634/1/6 639/1/6
f 639/1/6 636/1/6 640/1/6
f 641/1/6 642/1/6 645/1/6
f 629/1/6 637/1/6 646/1/6
f 640/1/6 636/1/6 647/1/6
f 643/1/6 644/1/6 648/1/6
f 645/1/6 646/1/6 649/1/6
f 641/1/6 645/1/6 649/1/6
f 646/1/6 637/1/6 650/1/6
f 649/1/6 646/1/6 650/1/6
f 647/1/6 648/1/6 651/1/6
f 640/1/6 647/1/6 651/1/6
f 648/1/6 644/1/6 652/1/6
f 651/1/6 648/1/6 652/1/6
f 650/1/6 637/1/6 653/1/6
f 653/1/6 637/1/6 654/1/6
f 640/1/6 651/1/6 655/1/6
f 655/1/6 651/1/6 656/1/6
f 657/1/6 658/1/6 665/1/6
f 665/1/6 658/1/6 666/1/6
f 659/1/6 660/1/6 667/1/6
f 667/1/6 660/1/6 668/1/6
f 661/1/6 662/1/6 669/1/6
f 669/1/6 662/1/6 670/1/6
f 663/1/6 664/1/6 671/1/6
f 671/1/6 664/1/6 672/1/6
f 673/1/6 674/1/6 678/1/6
f 675/1/6 676/1/6 679/1/6
f 677/1/6 678/1/6 681/1/6
f 678/1/6 674/1/6 682/1/6
f 681/1/6 678/1/6 682/1/6
f 679/1/6 680/1/6 683/1/6
f 675/1/6 679/1/6 683/1/6
f 683/1/6 680/1/6 684/1/6
f 677/1/6 681/1/6 685/1/6
f 685/1/6 681/1/6 686/1/6
f 684/1/6 680/1/6 687/1/6
f 687/1/6 680/1/6 688/1/6
f 682/1/6 674/1/6 689/1/6
f 675/1/6 683/1/6 692/1/6
f 689/1/6 690/1/6 693/1/6
f 682/1/6 689/1/6 693/1/6
f 693/1/6 690/1/6 694/1/6
f 694/1/6 690/1/6 695/1/6
f 695/1/6 690/1/6 696/1/6
f 691/1/6 692/1/6 697/1/6
f 697/1/6 692/1/6 698/1/6
f 698/1/6 692/1/6 699/1/6
f 692/1/6 683/1/6 700/1/6
f 699/1/6 692/1/6 700/1/6
f 694/1/6 695/1/6 705/1/6
f 705/1/6 695/1/6 706/1/6
f 698/1/6 699/1/6 707/1/6
f 707/1/6 699/1/6 708/1/6
f 701/1/6 702/1/6 711/1/6
f 711/1/6 702/1/6 712/1/6
f 709/1/6 710/1/6 713/1/6
f 713/1/6 710/1/6 714/1/6
f 703/1/6 704/1/6 715/1/6
f 715/1/6 704/1/6 716/1/6
f 717/2/6 718/2/6 719/2/6
f 719/2/6 718/2/6 720/2/6
f 721/1/6 722/1/6 723/1/6
f 723/1/6 722/1/6 724/1/6
f 717/2/6 719/2/6 725/2/6
f 720/2/6 718/2/6 726/2/6
f 717/2/6 725/2/6 727/2/6
f 725/2/6 726/2/6 727/2/6
f 726/2/6 718/2/6 728/2/6
f 727/2/6 726/2/6 728/2/6
